
<svg version="1.0" xmlns="http://www.w3.org/2000/svg" style="background-color:#071528"
 width="1280.000000pt" height="1280.000000pt" viewBox="0 0 1280.000000 1280.000000"
 preserveAspectRatio="xMidYMid meet">
<g transform="translate(0.000000,1280.000000) scale(0.100000,-0.100000)"
fill="rgb(100, 255, 218)" stroke="none">
<path d="M6100 8334 c-500 -60 -864 -252 -1077 -571 -110 -165 -153 -321 -153
-557 0 -279 66 -529 128 -489 15 9 17 29 13 179 -4 193 10 294 60 451 61 192
166 368 303 511 106 110 187 170 321 237 193 96 376 133 605 121 309 -17 554
-93 735 -229 91 -68 144 -138 217 -287 92 -188 100 -233 77 -451 -55 -542
-307 -1067 -594 -1237 -187 -110 -502 -168 -870 -160 -136 3 -140 4 -138 24 5
50 298 852 530 1454 79 206 152 394 161 417 12 32 14 49 6 70 l-10 28 -102 -2
c-126 -2 -241 -20 -266 -42 -49 -44 -139 -272 -346 -886 -210 -622 -322 -915
-386 -1006 -34 -49 -68 -59 -201 -59 -56 0 -113 -4 -128 -10 -32 -12 -42 -37
-24 -56 36 -36 452 -66 919 -68 353 -1 449 8 675 61 360 85 651 250 824 467
28 35 87 126 132 202 201 343 243 476 243 759 -1 177 -16 268 -65 395 -62 161
-205 345 -358 460 -291 220 -777 328 -1231 274z"/>
</g>
</svg>
